<svg width="120" height="42" viewBox="0 0 120 42" fill="none" xmlns="http://www.w3.org/2000/svg">
<g clip-path="url(#clip0_14165_86453)">
<path d="M69.365 27.767C64.758 31.1783 58.0804 32.9983 52.3311 32.9983C44.2697 32.9983 37.0124 30.0031 31.5219 25.0214C31.0905 24.6296 31.477 24.0958 31.9947 24.4008C37.92 27.8641 45.2463 29.9476 52.8143 29.9476C57.9182 29.9476 63.5329 28.8868 68.6955 26.6854C69.4754 26.3526 70.1276 27.1984 69.365 27.767Z" fill="black"/>
<path d="M71.279 25.568C70.6923 24.8123 67.3863 25.211 65.9023 25.3878C65.4503 25.4432 65.3812 25.048 65.7884 24.7638C68.4215 22.9021 72.7421 23.4395 73.246 24.0635C73.7498 24.691 73.1148 29.0417 70.6405 31.1182C70.2609 31.4371 69.8985 31.2673 70.0676 30.8443C70.6232 29.4507 71.8691 26.3272 71.279 25.568Z" fill="black"/>
<path d="M66.0079 11.6207V9.81112C66.0079 9.53725 66.2149 9.35352 66.4634 9.35352H74.5282C74.787 9.35352 74.9941 9.54072 74.9941 9.81112V11.3607C74.9907 11.6207 74.7732 11.9605 74.3867 12.4978L70.2076 18.4917C71.7605 18.4536 73.3998 18.6859 74.8078 19.4833C75.1253 19.6635 75.2115 19.9269 75.2356 20.1869V22.1179C75.2356 22.3814 74.9458 22.6899 74.6421 22.5305C72.1609 21.2235 68.8652 21.0813 66.1217 22.5443C65.8422 22.6969 65.5488 22.3918 65.5488 22.1283V20.2945C65.5488 19.9997 65.5523 19.4971 65.8456 19.0499L70.6873 12.0749H66.4737C66.2149 12.0749 66.0079 11.8911 66.0079 11.6207Z" fill="black"/>
<path d="M36.5892 22.9097H34.1356C33.9009 22.8924 33.7145 22.7156 33.6973 22.4902V9.84022C33.6973 9.58715 33.9078 9.38608 34.1701 9.38608H36.458C36.6962 9.39647 36.886 9.58021 36.9033 9.80901V11.4626H36.9481C37.5451 9.86448 38.6667 9.11914 40.1782 9.11914C41.7139 9.11914 42.6732 9.86448 43.3634 11.4626C43.957 9.86448 45.3063 9.11914 46.7522 9.11914C47.7806 9.11914 48.9057 9.54555 49.5924 10.5024C50.3688 11.5666 50.2101 13.1128 50.2101 14.4683L50.2066 22.4521C50.2066 22.7052 49.9961 22.9097 49.7339 22.9097H47.2837C47.0387 22.8924 46.842 22.6948 46.842 22.4521V15.7475C46.842 15.2136 46.8903 13.8824 46.7729 13.3763C46.5901 12.5269 46.0414 12.2877 45.3305 12.2877C44.7369 12.2877 44.1157 12.6864 43.8638 13.3243C43.6118 13.9621 43.636 15.0299 43.636 15.7475V22.4521C43.636 22.7052 43.4255 22.9097 43.1632 22.9097H40.7131C40.4646 22.8924 40.2713 22.6948 40.2713 22.4521L40.2679 15.7475C40.2679 14.3365 40.4991 12.26 38.7564 12.26C36.9929 12.26 37.062 14.2845 37.062 15.7475V22.4521C37.062 22.7052 36.8515 22.9097 36.5892 22.9097Z" fill="black"/>
<path d="M81.9356 9.11914C85.5764 9.11914 87.5468 12.26 87.5468 16.2536C87.5468 20.112 85.3693 23.1732 81.9356 23.1732C78.3605 23.1732 76.4141 20.0324 76.4141 16.1184C76.4141 12.1802 78.3846 9.11914 81.9356 9.11914ZM81.9563 11.7018C80.1481 11.7018 80.0341 14.1771 80.0341 15.7197C80.0341 17.2659 80.01 20.5662 81.9356 20.5662C83.837 20.5662 83.9268 17.9038 83.9268 16.2814C83.9268 15.2136 83.882 13.9379 83.561 12.9256C83.2849 12.045 82.7362 11.7018 81.9563 11.7018Z" fill="black"/>
<path d="M92.2674 22.9097H89.8241C89.5791 22.8924 89.3824 22.6948 89.3824 22.4521L89.3789 9.79861C89.3996 9.56635 89.6032 9.38608 89.8517 9.38608H92.1259C92.3399 9.39647 92.5159 9.54208 92.5642 9.73968V11.6741H92.609C93.2957 9.94422 94.2585 9.11914 95.953 9.11914C97.0539 9.11914 98.1271 9.51781 98.8172 10.6098C99.4591 11.6221 99.4592 13.3243 99.4592 14.548V22.511C99.4316 22.7329 99.2279 22.9097 98.9864 22.9097H96.5259C96.3015 22.8924 96.1152 22.726 96.0911 22.511V15.64C96.0911 14.2568 96.2498 12.2322 94.5553 12.2322C93.9583 12.2322 93.4096 12.6344 93.137 13.2445C92.792 14.0176 92.747 14.7872 92.747 15.64V22.4521C92.7436 22.7052 92.5296 22.9097 92.2674 22.9097Z" fill="black"/>
<path d="M59.5774 16.8694V16.3356C57.8036 16.3356 55.9298 16.7169 55.9298 18.8177C55.9298 19.882 56.4785 20.603 57.4206 20.603C58.1108 20.603 58.7284 20.1766 59.1184 19.4833C59.6016 18.6305 59.5774 17.8297 59.5774 16.8694ZM62.0517 22.8772C61.8895 23.0228 61.6548 23.0332 61.472 22.9362C60.6576 22.2567 60.5126 21.9412 60.064 21.293C58.7181 22.6727 57.7656 23.0852 56.0195 23.0852C53.9558 23.0852 52.3477 21.806 52.3477 19.2441C52.3477 17.2438 53.4278 15.8814 54.9635 15.2158C56.2956 14.6265 58.1556 14.5225 59.5774 14.3595V14.0406C59.5774 13.4547 59.6223 12.7614 59.2806 12.2552C58.9804 11.8011 58.4075 11.6139 57.9037 11.6139C56.9685 11.6139 56.1333 12.0958 55.9298 13.0942C55.8884 13.316 55.7261 13.5344 55.5053 13.5448L53.1241 13.2883C52.924 13.2432 52.7032 13.0803 52.7583 12.7718C53.307 9.87361 55.9125 9 58.2454 9C59.4394 9 60.9992 9.31894 61.9413 10.2272C63.1354 11.347 63.0215 12.8411 63.0215 14.467V18.3081C63.0215 19.4625 63.4977 19.9686 63.9463 20.5926C64.105 20.8146 64.1396 21.0814 63.9394 21.2478C63.439 21.6674 62.5487 22.4474 62.0587 22.8842L62.0517 22.8772Z" fill="black"/>
<path d="M27.4114 16.8694V16.3356C25.6376 16.3356 23.7637 16.7169 23.7637 18.8177C23.7637 19.882 24.3124 20.603 25.2545 20.603C25.9447 20.603 26.5624 20.1766 26.9524 19.4833C27.4355 18.6305 27.4114 17.8297 27.4114 16.8694ZM29.8857 22.8772C29.7235 23.0228 29.4888 23.0332 29.306 22.9362C28.4915 22.2567 28.3466 21.9412 27.898 21.293C26.5521 22.6727 25.5996 23.0852 23.8535 23.0852C21.7898 23.0852 20.1816 21.806 20.1816 19.2441C20.1816 17.2438 21.2618 15.8814 22.7975 15.2158C24.1295 14.6265 25.9896 14.5225 27.4114 14.3595V14.0406C27.4114 13.4547 27.4562 12.7614 27.1146 12.2552C26.8144 11.8011 26.2415 11.6139 25.7377 11.6139C24.8025 11.6139 23.9673 12.0958 23.7637 13.0942C23.7223 13.316 23.5601 13.5344 23.3393 13.5448L20.9581 13.2883C20.7579 13.2432 20.5371 13.0803 20.5923 12.7718C21.141 9.87361 23.7465 9 26.0793 9C27.2733 9 28.8332 9.31894 29.7753 10.2272C30.9693 11.347 30.8554 12.8411 30.8554 14.467V18.3081C30.8554 19.4625 31.3317 19.9686 31.7803 20.5926C31.939 20.8146 31.9736 21.0814 31.7734 21.2478C31.273 21.6674 30.3827 22.4474 29.8926 22.8842L29.8857 22.8772Z" fill="black"/>
</g>
<defs>
<clipPath id="clip0_14165_86453">
<rect width="80" height="24" fill="white" transform="translate(20 9)"/>
</clipPath>
</defs>
</svg>
