<svg width="120" height="42" viewBox="0 0 120 42" fill="none" xmlns="http://www.w3.org/2000/svg">
<mask id="mask0_14165_86463" style="mask-type:luminance" maskUnits="userSpaceOnUse" x="29" y="8" width="62" height="26">
<path d="M91 8.72852H29V33.271H91V8.72852Z" fill="white"/>
</mask>
<g mask="url(#mask0_14165_86463)">
<path d="M29 31.5625H41.0549V33.2653H29V31.5625Z" fill="black"/>
<path d="M29 28.2969H41.0549V30.0057H29V28.2969Z" fill="black"/>
<path d="M32.4395 25.0352H37.6102V26.744H32.4395V25.0352Z" fill="black"/>
<path d="M32.4395 21.7734H37.6102V23.4824H32.4395V21.7734Z" fill="black"/>
<path d="M32.4395 18.5137H37.6102V20.2225H32.4395V18.5137Z" fill="black"/>
<path d="M32.4395 15.252H37.6102V16.9608H32.4395V15.252Z" fill="black"/>
<path d="M41.0549 11.9902H29V13.6991H41.0549V11.9902Z" fill="black"/>
<path d="M41.0549 8.72852H29V10.4374H41.0549V8.72852Z" fill="black"/>
<path d="M42.7754 30.0057H61.3152C61.6284 29.4786 61.8617 28.9029 62.0031 28.2969H42.7754V30.0057Z" fill="black"/>
<path d="M59.8703 21.7734H46.2188V23.4824H61.3134C60.9204 22.8278 60.4352 22.2522 59.8703 21.7734Z" fill="black"/>
<path d="M46.2188 18.5137V20.2225H59.8703C60.4475 19.7438 60.9326 19.1682 61.3134 18.5137H46.2188Z" fill="black"/>
<path d="M61.3153 11.9902H42.7754V13.6991H62.0031C61.8434 13.0931 61.6101 12.5175 61.3153 11.9902Z" fill="black"/>
<path d="M55.6164 8.72852H42.7754V10.4374H60.044C58.8895 9.38296 57.3236 8.72852 55.6164 8.72852Z" fill="black"/>
<path d="M51.3834 15.252H46.2188V16.9608H51.3834V15.252Z" fill="black"/>
<path d="M56.5547 16.9569H61.9588C62.1123 16.4116 62.1922 15.8359 62.1922 15.248H56.5547V16.9569Z" fill="black"/>
<path d="M46.2188 25.0352H51.3834V26.744H46.2188V25.0352Z" fill="black"/>
<path d="M56.5547 25.0352V26.744H62.1922C62.1922 26.1562 62.1123 25.5806 61.9588 25.0352H56.5547Z" fill="black"/>
<path d="M42.7754 33.2532L55.6164 33.2714C57.3359 33.2714 58.8895 32.6169 60.0502 31.5625H42.7754V33.2532Z" fill="black"/>
<path d="M63.4453 31.5625H72.055V33.2653H63.4453V31.5625Z" fill="black"/>
<path d="M63.4453 28.2969H72.055V30.0057H63.4453V28.2969Z" fill="black"/>
<path d="M66.8848 25.0352H72.0555V26.744H66.8848V25.0352Z" fill="black"/>
<path d="M66.8848 21.7734H72.0555V23.4824H66.8848V21.7734Z" fill="black"/>
<path d="M74.4501 11.9902H63.4453V13.6991H75.0457L74.4501 11.9902Z" fill="black"/>
<path d="M73.3078 8.72852H63.4453V10.4374H73.9035L73.3078 8.72852Z" fill="black"/>
<path d="M82.3848 31.5625H91.0006V33.2653H82.3848V31.5625Z" fill="black"/>
<path d="M82.3848 28.2969H91.0006V30.0057H82.3848V28.2969Z" fill="black"/>
<path d="M82.3848 25.0352H87.5555V26.744H82.3848V25.0352Z" fill="black"/>
<path d="M82.3848 21.7734H87.5555V23.4824H82.3848V21.7734Z" fill="black"/>
<path d="M82.3848 20.2225H87.5555V18.5137H82.3848H77.7053L77.2202 19.8954L76.735 18.5137H72.0555H66.8848V20.2225H72.0555V18.6531L72.6021 20.2225H81.8382L82.3848 18.6531V20.2225Z" fill="black"/>
<path d="M87.5537 15.252H78.8457L78.25 16.9608H87.5537V15.252Z" fill="black"/>
<path d="M81.1407 8.72852L80.5449 10.4374H91.0031V8.72852H81.1407Z" fill="black"/>
<path d="M77.2207 33.2532L77.8163 31.5625H76.625L77.2207 33.2532Z" fill="black"/>
<path d="M76.0767 30.0057H78.3612L78.9753 28.2969H75.4688L76.0767 30.0057Z" fill="black"/>
<path d="M74.9166 26.744H79.5223L80.1303 25.0352H74.3086L74.9166 26.744Z" fill="black"/>
<path d="M73.7636 23.4824H80.6846L81.2742 21.7734H73.168L73.7636 23.4824Z" fill="black"/>
<path d="M66.8848 16.9608H76.1885L75.5928 15.252H66.8848V16.9608Z" fill="black"/>
<path d="M79.4004 13.6991H91.0008V11.9902H79.9899L79.4004 13.6991Z" fill="black"/>
</g>
</svg>
