<svg width="122" height="42" viewBox="0 0 122 42" fill="none" xmlns="http://www.w3.org/2000/svg">
<g clip-path="url(#clip0_14165_86505)">
<path d="M48.0462 25.3821C46.9491 25.3821 46.5362 24.901 46.5362 24.1293C46.5362 23.2366 47.034 22.7736 48.3383 22.7736H50.0541V23.288C50.0541 24.6438 49.2129 25.3821 48.0462 25.3821ZM45.0608 24.2656C45.0608 25.3293 45.6782 26.4625 47.5999 26.4625C48.7151 26.4625 49.4868 26.0343 50.0194 25.3474L50.2085 26.2915H51.4099V21.212C51.4099 19.0331 50.1056 18.6563 48.5621 18.6563C47.3955 18.6563 45.8687 18.9983 45.4905 20.749H46.9658C47.1549 20.0968 47.6013 19.72 48.544 19.72C49.3158 19.72 50.0541 19.9939 50.0541 21.2287V21.7613H48.4245C46.468 21.7613 45.0608 22.4134 45.0608 24.2656ZM41.1313 26.2915H42.5218V21.625C42.5218 20.5432 43.1906 20.0454 44.0486 20.0454C44.3406 20.0454 44.6326 20.0635 44.9413 20.1149V18.7592C44.684 18.673 44.4435 18.6563 44.2029 18.6563C43.4312 18.6563 42.8305 19.1193 42.5218 19.7548L42.3508 18.8454H41.1327V26.2915H41.1313ZM90.4203 26.2915H91.8108V21.625C91.8108 20.5432 92.4796 20.0454 93.3376 20.0454C93.6296 20.0454 93.9216 20.0635 94.2303 20.1149V18.7592C93.9716 18.673 93.7325 18.6563 93.4933 18.6563C92.7216 18.6563 92.1195 19.1193 91.8108 19.7548L91.6398 18.8454H90.4203V26.2915ZM64.2928 20.0621V18.844H62.7675V16.7165L61.3436 16.9404V18.844H60.2632V20.0621H61.3436V24.7981C61.3436 25.8618 61.7385 26.4959 63.3 26.4959C63.6435 26.4959 64.158 26.4278 64.4666 26.3416V25.2778C64.1413 25.3641 63.8326 25.3807 63.6087 25.3807C62.9566 25.3807 62.7675 25.072 62.7675 24.3865V20.0621H64.2928ZM106.223 20.0621V18.844H104.695V16.7165L103.273 16.9404V18.844H102.191V20.0621H103.273V24.7981C103.273 25.8618 103.666 26.4959 105.228 26.4959C105.571 26.4959 106.086 26.4278 106.396 26.3416V25.2778C106.07 25.3641 105.76 25.3807 105.538 25.3807C104.886 25.3807 104.695 25.072 104.695 24.3865V20.0621H106.223ZM85.5132 25.3307C84.1756 25.3307 83.3176 24.4032 83.3176 22.5511C83.3176 20.6989 84.2103 19.7882 85.5313 19.7882C86.8523 19.7882 87.6588 20.7657 87.6588 22.6373C87.6588 24.5089 86.8342 25.3307 85.5132 25.3307ZM110.375 25.3307C109.038 25.3307 108.18 24.4032 108.18 22.5511C108.18 20.6989 109.071 19.7882 110.393 19.7882C111.716 19.7882 112.521 20.7657 112.521 22.6373C112.521 24.5089 111.698 25.3307 110.377 25.3307H110.375ZM95.1897 26.2915H96.5454V22.0018C96.5454 20.7657 97.0766 19.9077 98.3642 19.9077C99.5656 19.9077 99.9424 20.4222 99.9424 21.6751V26.2901H101.332V21.2802C101.332 19.5643 100.61 18.6716 98.9816 18.6716C97.8664 18.6716 97.0432 19.0832 96.5454 19.7868L96.373 18.8426H95.1883V26.2887L95.1897 26.2915ZM53.2106 26.2915H54.5663V22.0018C54.5663 20.7657 55.0975 19.9077 56.3851 19.9077C57.5865 19.9077 57.9633 20.4222 57.9633 21.6751V26.2901H59.3524V21.2802C59.3524 19.5643 58.6321 18.6716 57.0024 18.6716C55.8873 18.6716 55.0641 19.0832 54.5663 19.7868L54.3953 18.8426H53.2106V26.2887V26.2915ZM115.299 26.2915H116.653V22.0018C116.653 20.7657 117.186 19.9077 118.472 19.9077C119.672 19.9077 120.052 20.4222 120.052 21.6751V26.2901H121.441V21.2802C121.441 19.5643 120.721 18.6716 119.091 18.6716C117.976 18.6716 117.151 19.0832 116.655 19.7868L116.484 18.8426H115.3V26.2887L115.299 26.2915ZM73.7941 16.2869V15.0855H65.8669V16.2869H69.1095V26.2901H70.6029V16.2869H73.7941ZM74.5158 26.2915H75.8715V22.0018C75.8715 20.7657 76.4027 19.9077 77.6903 19.9077C78.8917 19.9077 79.2685 20.4222 79.2685 21.6751V26.2901H80.659V21.2802C80.659 19.5643 79.9373 18.6716 78.3091 18.6716C77.1939 18.6716 76.3693 19.0832 75.8729 19.7868V15.0855H74.5172V26.2901L74.5158 26.2915ZM35.5554 21.8475H38.1974V24.3351C37.3909 25.0387 36.1547 25.3126 35.1605 25.3126C32.6729 25.3126 31.249 23.6996 31.249 20.8686C31.249 17.8665 32.7758 16.2021 35.1271 16.2021C36.5343 16.2021 37.58 16.6999 38.5756 17.6426L39.4502 16.647C38.5575 15.6695 37.0307 14.9492 35.2815 14.9492C31.7635 14.9492 29.6875 17.4034 29.6875 20.8338C29.6875 24.2642 31.4201 26.5307 35.1786 26.5307C37.2546 26.5307 38.8676 25.6213 39.6574 24.7634V20.6961H35.5568V21.8475H35.5554ZM85.6161 18.6563C83.1452 18.6563 81.859 20.3541 81.859 22.6025C81.859 24.851 83.1452 26.4625 85.4451 26.4625C87.745 26.4625 89.1674 24.9525 89.1674 22.5678C89.1674 20.1831 87.8465 18.6563 85.6161 18.6563ZM110.478 18.6563C108.007 18.6563 106.72 20.3541 106.72 22.6025C106.72 24.851 108.007 26.4625 110.306 26.4625C112.604 26.4625 114.03 24.9525 114.03 22.5678C114.03 20.1831 112.709 18.6563 110.478 18.6563Z" fill="#231F20"/>
<path d="M12.6699 16.4411C14.4247 16.9987 15.8194 18.3072 16.7594 20.1649C16.8859 20.4138 16.9499 20.7878 16.8817 21.0075C16.9137 20.9199 16.9443 20.8337 16.9721 20.7447C19.2247 13.6615 11.2446 8.91436 7.19412 11.0376C7.11764 11.0808 7.03977 11.1225 6.9619 11.1684C1.74893 14.2747 -0.00588323 20.9658 2.96283 26.2219C0.836759 22.1714 5.58531 14.1885 12.6685 16.4411H12.6699Z" stroke="black" stroke-width="0.655738"/>
<path d="M8.36738 20.7444C8.92497 18.9896 10.2334 17.5935 12.0911 16.6549C12.34 16.5298 12.7141 16.4644 12.9338 16.5326C12.8476 16.5006 12.76 16.47 12.671 16.4422C5.58778 14.1896 0.839226 22.1696 2.96391 26.2202C3.00701 26.2981 3.04873 26.3745 3.09461 26.4524C6.20099 31.6654 12.8921 33.4202 18.1481 30.4515C14.0976 32.5775 6.11478 27.829 8.36738 20.7458V20.7444Z" stroke="black" stroke-width="0.655738"/>
<path d="M12.6721 25.0464C10.9173 24.4888 9.52264 23.1803 8.58267 21.3226C8.45752 21.0737 8.39217 20.6997 8.4603 20.48C8.42832 20.5662 8.39773 20.6538 8.36992 20.7428C6.11731 27.826 14.0974 32.5746 18.1479 30.4499C18.2244 30.4068 18.3036 30.3651 18.3801 30.3192C23.5931 27.2128 25.3479 20.5231 22.3792 15.2656C24.5053 19.3161 19.7567 27.299 12.6735 25.045L12.6721 25.0464Z" stroke="black" stroke-width="0.655738"/>
<path d="M16.9741 20.7441C16.4165 22.4989 15.1081 23.895 13.2504 24.8336C13.0015 24.9601 12.6274 25.0241 12.4077 24.9559C12.4939 24.9879 12.5815 25.0185 12.6705 25.0463C19.7537 27.2989 24.5009 19.3188 22.3776 15.2683C22.3345 15.1905 22.2928 15.1126 22.2469 15.0361C19.1405 9.82314 12.4494 8.06834 7.19336 11.0371C11.2439 8.91097 19.2267 13.6595 16.9741 20.7427V20.7441Z" stroke="black" stroke-width="0.655738"/>
</g>
<defs>
<clipPath id="clip0_14165_86505">
<rect width="121" height="24" fill="white" transform="translate(0.5 9)"/>
</clipPath>
</defs>
</svg>
