<svg width="120" height="42" viewBox="0 0 120 42" fill="none" xmlns="http://www.w3.org/2000/svg">
<path d="M66.9499 4.4707H53.0117V29.5119H66.9499V4.4707Z" fill="#8F9094"/>
<path d="M53.9388 16.9923C53.9388 11.9047 56.3305 7.38919 60.0006 4.47167C57.2996 2.34796 53.8924 1.06445 50.1759 1.06445C41.3718 1.06445 34.248 8.18816 34.248 16.9923C34.248 25.7964 41.3718 32.9201 50.1759 32.9201C53.8924 32.9201 57.2996 31.6366 60.0006 29.5129C56.3254 26.6366 53.9388 22.0799 53.9388 16.9923Z" fill="#626365"/>
<path d="M85.7526 16.9923C85.7526 25.7964 78.6289 32.9201 69.8247 32.9201C66.1082 32.9201 62.701 31.6366 60 29.5129C63.7165 26.5902 66.0619 22.0799 66.0619 16.9923C66.0619 11.9047 63.6701 7.38919 60 4.47167C62.6959 2.34796 66.1031 1.06445 69.8196 1.06445C78.6289 1.06445 85.7526 8.23456 85.7526 16.9923Z" fill="#C0C1C3"/>
<path d="M43.5395 40.8478V38.1931C43.5395 37.1777 42.921 36.5127 41.8591 36.5127C41.3282 36.5127 40.7509 36.688 40.354 37.2653C40.0447 36.7807 39.6014 36.5127 38.9364 36.5127C38.4931 36.5127 38.0498 36.6467 37.6993 37.1313V36.6003H36.7715V40.8478H37.6993V38.5024C37.6993 37.7498 38.0962 37.3941 38.7148 37.3941C39.3333 37.3941 39.6426 37.7911 39.6426 38.5024V40.8478H40.5705V38.5024C40.5705 37.7498 41.0138 37.3941 41.5859 37.3941C42.2045 37.3941 42.5138 37.7911 42.5138 38.5024V40.8478H43.5395ZM57.3024 36.6003H55.7973V35.3168H54.8694V36.6003H54.0292V37.4405H54.8694V39.389C54.8694 40.3632 55.2663 40.9354 56.3282 40.9354C56.7251 40.9354 57.1684 40.8014 57.4777 40.6261L57.2096 39.8271C56.9416 40.0024 56.6323 40.0488 56.4107 40.0488C55.9674 40.0488 55.7921 39.7807 55.7921 39.3426V37.4405H57.2973V36.6003H57.3024ZM65.1787 36.5076C64.6478 36.5076 64.2921 36.7756 64.0705 37.1261V36.5952H63.1426V40.8426H64.0705V38.4508C64.0705 37.7447 64.3797 37.3426 64.9571 37.3426C65.1323 37.3426 65.354 37.389 65.5344 37.4302L65.8024 36.5436C65.6168 36.5076 65.354 36.5076 65.1787 36.5076ZM53.2766 36.9509C52.8333 36.6416 52.2148 36.5076 51.5498 36.5076C50.488 36.5076 49.7818 37.0385 49.7818 37.8787C49.7818 38.5849 50.3127 38.9869 51.2406 39.1158L51.6839 39.1622C52.1684 39.2498 52.4364 39.3838 52.4364 39.6055C52.4364 39.9148 52.0808 40.1364 51.4622 40.1364C50.8436 40.1364 50.354 39.9148 50.0447 39.6931L49.6014 40.3993C50.0859 40.755 50.7509 40.9302 51.4158 40.9302C52.6529 40.9302 53.3643 40.3529 53.3643 39.5591C53.3643 38.8065 52.7869 38.4096 51.9055 38.2756L51.4622 38.2292C51.0653 38.1828 50.756 38.0952 50.756 37.8323C50.756 37.523 51.0653 37.3478 51.555 37.3478C52.0859 37.3478 52.6168 37.5694 52.8849 37.7034L53.2766 36.9509ZM77.9622 36.5076C77.4313 36.5076 77.0756 36.7756 76.854 37.1261V36.5952H75.9261V40.8426H76.854V38.4508C76.854 37.7447 77.1632 37.3426 77.7406 37.3426C77.9158 37.3426 78.1375 37.389 78.3179 37.4302L78.5859 36.5539C78.4055 36.5076 78.1426 36.5076 77.9622 36.5076ZM66.1065 38.724C66.1065 40.0076 66.9931 40.9354 68.3643 40.9354C68.9828 40.9354 69.4261 40.8014 69.8694 40.4508L69.4261 39.6983C69.0705 39.9663 68.7199 40.0952 68.3179 40.0952C67.5653 40.0952 67.0344 39.5643 67.0344 38.724C67.0344 37.9251 67.5653 37.3941 68.3179 37.3529C68.7148 37.3529 69.0705 37.4869 69.4261 37.7498L69.8694 36.9972C69.4261 36.6416 68.9828 36.5127 68.3643 36.5127C66.9931 36.5076 66.1065 37.4405 66.1065 38.724ZM74.689 38.724V36.6003H73.7612V37.1313C73.4519 36.7344 73.0086 36.5127 72.4313 36.5127C71.2354 36.5127 70.3076 37.4405 70.3076 38.724C70.3076 40.0076 71.2354 40.9354 72.4313 40.9354C73.0498 40.9354 73.4931 40.7137 73.7612 40.3168V40.8478H74.689V38.724ZM71.2818 38.724C71.2818 37.9715 71.7663 37.3529 72.5653 37.3529C73.3179 37.3529 73.8488 37.9302 73.8488 38.724C73.8488 39.4766 73.3179 40.0952 72.5653 40.0952C71.7715 40.0488 71.2818 39.4715 71.2818 38.724ZM60.1787 36.5076C58.9416 36.5076 58.055 37.3941 58.055 38.7189C58.055 40.0488 58.9416 40.9302 60.2251 40.9302C60.8436 40.9302 61.4622 40.755 61.9519 40.3529L61.5086 39.688C61.1529 39.956 60.7096 40.1313 60.2715 40.1313C59.6942 40.1313 59.122 39.8632 58.988 39.1158H62.1272C62.1272 38.9818 62.1272 38.8941 62.1272 38.7601C62.1684 37.3941 61.3694 36.5076 60.1787 36.5076ZM60.1787 37.3065C60.756 37.3065 61.1529 37.6622 61.2406 38.322H59.0292C59.1168 37.7498 59.5138 37.3065 60.1787 37.3065ZM83.2302 38.724V34.9199H82.3024V37.1313C81.9931 36.7344 81.5498 36.5127 80.9725 36.5127C79.7766 36.5127 78.8488 37.4405 78.8488 38.724C78.8488 40.0076 79.7766 40.9354 80.9725 40.9354C81.5911 40.9354 82.0344 40.7137 82.3024 40.3168V40.8478H83.2302V38.724ZM79.823 38.724C79.823 37.9715 80.3076 37.3529 81.1065 37.3529C81.8591 37.3529 82.39 37.9302 82.39 38.724C82.39 39.4766 81.8591 40.0952 81.1065 40.0952C80.3076 40.0488 79.823 39.4715 79.823 38.724ZM48.7612 38.724V36.6003H47.8333V37.1313C47.5241 36.7344 47.0808 36.5127 46.5034 36.5127C45.3076 36.5127 44.3797 37.4405 44.3797 38.724C44.3797 40.0076 45.3076 40.9354 46.5034 40.9354C47.122 40.9354 47.5653 40.7137 47.8333 40.3168V40.8478H48.7612V38.724ZM45.3127 38.724C45.3127 37.9715 45.7973 37.3529 46.5962 37.3529C47.3488 37.3529 47.8797 37.9302 47.8797 38.724C47.8797 39.4766 47.3488 40.0952 46.5962 40.0952C45.7973 40.0488 45.3127 39.4715 45.3127 38.724Z" fill="black"/>
</svg>
