<svg width="120" height="42" viewBox="0 0 120 42" fill="none" xmlns="http://www.w3.org/2000/svg">
<g clip-path="url(#clip0_14165_86432)">
<path d="M79.5341 26.554C76.9086 34.4048 69.0806 40.1005 60.0341 40.1005C50.9868 40.1005 43.1849 34.4048 40.5669 26.554H40.3867C42.8246 35.1694 50.6953 41.481 60.0341 41.481C69.372 41.481 77.2454 35.1694 79.6817 26.554H79.5341ZM60.0341 1.12893C69.174 1.12893 77.0512 6.95275 79.5989 14.9277H79.6655C77.2261 6.31473 69.372 0 60.0341 0C50.6953 0 42.8246 6.31166 40.3867 14.9277H40.4837C43.0184 6.94818 50.8907 1.12893 60.0341 1.12893Z" fill="black"/>
<path d="M49.9546 18.089C49.9546 17.9862 49.9206 17.9038 49.6329 17.881V17.7422H51.9996V17.881C51.7126 17.9038 51.677 17.9862 51.677 18.089V21.1869C51.677 23.2207 50.2658 23.8938 48.5078 23.8938C46.7528 23.8938 45.3393 23.2207 45.3393 21.1869V18.089C45.3393 17.9862 45.3053 17.9038 45.0176 17.881V17.7422H47.3843V17.881C47.0958 17.9038 47.0618 17.9862 47.0618 18.089V21.1869C47.0618 22.0781 47.5894 22.4363 48.5078 22.4363C49.4269 22.4363 49.9546 22.0781 49.9546 21.1869V18.089Z" fill="black"/>
<path d="M60.5707 23.3776C60.5707 23.5705 60.7335 23.6116 60.9523 23.6245V23.79H58.4258V23.6245C58.5621 23.6245 58.8211 23.6116 58.8211 23.4455C58.8211 23.1299 57.0729 21.5626 55.5292 19.7453L55.502 19.7728V23.3776C55.502 23.5705 55.6662 23.6116 55.857 23.6245V23.79H53.5206V23.6245C53.6985 23.6116 53.8628 23.5705 53.8628 23.3776V18.1499C53.8628 17.9586 53.6985 17.9151 53.4941 17.9021V17.7383H56.7443V17.9021C56.6217 17.9151 56.4582 17.9586 56.4582 18.1499C56.4582 18.2475 57.7831 19.6097 58.9308 20.8598V18.1499C58.9308 17.9586 58.7673 17.9151 58.5485 17.9021V17.7383H60.9523V17.9021C60.7335 17.9151 60.5707 17.9586 60.5707 18.1499V23.3776Z" fill="black"/>
<path d="M65.6802 17.7383V17.9021C65.4061 17.9151 65.2441 17.9586 65.2441 18.1499V23.3776C65.2441 23.5705 65.4061 23.6116 65.6802 23.6246V23.7892H62.9766V23.6246C63.2491 23.6116 63.4119 23.5705 63.4119 23.3776V18.1499C63.4119 17.9586 63.2491 17.9151 62.9766 17.9021V17.7383H65.6802Z" fill="black"/>
<path d="M67.1816 17.7383H69.7617V17.9021C69.6528 17.9021 69.4211 17.9021 69.4211 18.0409C69.4211 18.1926 70.5568 21.1357 70.652 21.5489H70.6769C71.1551 20.3796 72.0983 18.1629 72.0983 18.0409C72.0983 17.9021 71.8673 17.9021 71.7864 17.9021V17.7383H74.0658V17.9021C73.9151 17.9151 73.8198 17.9586 73.7812 18.095C73.6019 18.6736 71.6619 23.2961 71.6619 23.4043C71.6619 23.5545 71.825 23.6391 71.9489 23.6246V23.7892H69.0669V23.6246C69.1902 23.639 69.352 23.5545 69.352 23.4043C69.352 23.3487 67.6033 18.095 67.4141 17.973C67.3027 17.9021 67.2483 17.9021 67.1816 17.9021V17.7383Z" fill="black"/>
<path d="M81.1155 22.5516C81.278 22.5516 81.4169 22.4556 81.4717 22.2063H81.6366V24.0495H81.4978C81.4038 23.801 81.3341 23.7606 81.1155 23.7606H75.0215V23.5975C75.2139 23.583 75.405 23.5418 75.405 23.349V18.1228C75.405 17.9299 75.2139 17.8887 75.0215 17.8743V17.7088H81.2251C81.3341 17.7088 81.4717 17.6562 81.4717 17.4062H81.6366V19.2502H81.4717C81.4717 18.9758 81.3341 18.9201 81.2251 18.9201H77.2355V20.0338H79.8049C79.9133 20.0338 80.0515 19.9805 80.0515 19.7174H80.2152V21.5073H80.0515C80.0515 21.2435 79.9133 21.1902 79.8049 21.1902H77.2355V22.5516H81.1155Z" fill="black"/>
<path d="M83.3964 18.0968C83.3964 17.9047 83.2333 17.8635 83.0957 17.8498V17.6836H87.4813C88.8224 17.6836 89.7233 18.3445 89.7233 19.5969C89.7233 20.5864 89.0534 21.1245 88.2054 21.4546L89.4214 23.2955C89.5191 23.4479 89.7065 23.5722 89.8995 23.5722V23.7354H87.1408V23.5722C87.2628 23.5722 87.4695 23.5296 87.4695 23.3938C87.4695 23.2132 86.5387 21.7161 86.4297 21.4836H85.1179V23.3253C85.1179 23.5173 85.2829 23.5578 85.4747 23.5722V23.7354H83.125V23.5722C83.2333 23.5578 83.3964 23.5173 83.3964 23.3253V18.0968ZM85.1179 20.3256H87.0611C87.632 20.3256 88.0018 20.0802 88.0018 19.5824C88.0018 19.1564 87.7677 18.8415 86.9621 18.8415H85.1179V20.3256Z" fill="black"/>
<path d="M91.5657 21.707L91.7437 21.7893C91.7437 21.8313 91.73 21.8694 91.73 21.938C91.73 22.2955 93.3021 22.6545 94.4103 22.6545C94.7478 22.6545 95.6512 22.5997 95.6512 22.0638C95.6512 20.9889 91.1822 22.0341 91.1822 19.7259C91.1822 18.8713 91.9909 17.6738 94.2148 17.6738C95.5142 17.6738 96.633 18.0336 96.9338 18.0336C97.0875 18.0336 97.1654 17.9231 97.2351 17.8674L97.3864 17.9231L96.5658 19.6565L96.3896 19.5742C96.3896 19.533 96.402 19.4781 96.402 19.421C96.402 19.2852 95.4339 18.9148 94.5149 18.9148C94.1756 18.9148 92.9622 18.9148 92.9622 19.5185C92.9622 20.4942 97.4256 19.4895 97.4256 21.8846C97.4256 22.9587 96.5135 23.8933 94.4209 23.8933C93.111 23.8933 91.5812 23.3993 91.471 23.3993C91.3484 23.3993 91.2525 23.4923 91.1566 23.5921L91.0078 23.5479L91.5657 21.707Z" fill="black"/>
<path d="M103.664 23.7892V23.6246C103.717 23.6246 103.84 23.6246 103.84 23.5011C103.84 23.3479 103.54 22.8135 103.444 22.5643H100.273C100.193 22.8135 99.8774 23.3479 99.8774 23.5011C99.8774 23.6246 99.9994 23.6246 100.055 23.6246V23.7892H98.0059V23.6246C98.1161 23.6246 98.2387 23.5834 98.2798 23.4874C99.3725 20.9154 100.641 18.2322 100.641 18.0409C100.641 17.9433 100.601 17.9151 100.466 17.9021V17.7383H103.319V17.9021C103.185 17.9151 103.143 17.9433 103.143 18.0409C103.143 18.2055 105.056 22.0688 105.656 23.4874C105.699 23.5834 105.821 23.6246 105.928 23.6246V23.7892H103.664ZM102.979 21.5748L101.832 19.169L100.713 21.5748H102.979Z" fill="black"/>
<path d="M107.251 18.1148C107.251 17.925 107.088 17.8815 106.883 17.8686V17.7031H109.44V17.8686C109.245 17.8815 109.081 17.925 109.081 18.1148V22.353H112.824C112.938 22.353 113.07 22.2989 113.07 22.0077H113.233V24.0994H113.07C113.07 23.8098 112.938 23.7541 112.824 23.7541H106.883V23.591C107.088 23.5788 107.251 23.5361 107.251 23.344V18.1148Z" fill="black"/>
<path d="M7.08707 18.079C7.08707 17.9776 7.053 17.8952 6.76758 17.8723V17.7344H9.51887V17.8723C9.25615 17.8838 9.19937 17.9524 9.19937 18.0203C9.19937 18.1491 11.1746 20.2613 11.9726 21.1472V18.079C11.9726 17.9417 11.8803 17.8838 11.7319 17.8723V17.7344H13.8222V17.8723C13.5368 17.8952 13.5027 17.9776 13.5027 18.079V23.4347C13.5027 23.5384 13.5368 23.6192 13.8222 23.6413V23.7793H11.6531V23.6413C11.8591 23.6413 11.9166 23.5963 11.9166 23.5163C11.9166 23.3646 11.6304 23.2144 8.61716 19.8261V23.4347C8.61716 23.5384 8.65123 23.6192 8.93591 23.6413V23.7793H6.76758V23.6413C7.053 23.6192 7.08707 23.5384 7.08707 23.4347V18.079Z" fill="black"/>
<path d="M15.6074 18.079C15.6074 17.9776 15.5726 17.8952 15.2871 17.8723V17.7344H19.6359C20.8677 17.7344 21.7702 18.1933 21.7702 19.3321C21.7702 20.0205 21.3136 20.4451 20.6739 20.5854V20.6067C21.4393 20.8155 21.998 21.2271 21.998 22.0786C21.998 22.9972 21.3136 23.7793 19.6926 23.7793H15.2871V23.6413C15.5726 23.6192 15.6074 23.5384 15.6074 23.4347V18.079ZM17.3192 20.009H18.872C19.8509 20.009 20.1046 19.9419 20.1046 19.4778C20.1046 19.0196 19.8509 18.9517 18.872 18.9517H17.3192V20.009ZM17.3192 22.5596H19.2596C20.0584 22.5596 20.3778 22.3774 20.3778 21.8713C20.3778 21.3682 20.0584 21.1807 19.2596 21.1807H17.3192V22.5596Z" fill="black"/>
<path d="M28.7374 19.9611L28.6215 19.8827C28.6329 19.8354 28.6466 19.7911 28.6466 19.7088C28.6466 19.4763 27.766 19.1806 26.7969 19.1806C25.8718 19.1806 24.6733 19.5838 24.6733 20.7531C24.6733 21.9278 25.8718 22.3303 26.7969 22.3303C27.1959 22.3303 28.7132 22.017 28.7132 21.6862C28.7132 21.6161 28.6677 21.5703 28.6466 21.5131L28.7699 21.4316L29.9465 23.2375L29.8087 23.3174C29.7746 23.2375 29.7307 23.226 29.6504 23.226C29.4211 23.226 28.3588 23.848 26.6599 23.848C24.8316 23.848 22.8926 22.8128 22.8926 20.7531C22.8926 18.6965 24.8316 17.6621 26.6599 17.6621C27.5714 17.6621 28.2233 17.778 28.6791 17.9053C29.125 18.0318 29.3529 18.124 29.4672 18.124C29.5354 18.124 29.5937 18.0882 29.6399 18.0318L29.764 18.0669L28.7374 19.9611Z" fill="black"/>
<path fill-rule="evenodd" clip-rule="evenodd" d="M38.292 18.5612C38.2314 18.6405 37.8559 18.7708 37.8354 18.9705C37.8158 19.2899 38.292 22.278 38.292 22.278C38.292 22.278 39.0173 20.6399 39.3542 19.9196C39.7615 19.0399 39.9591 18.7403 39.8509 18.2914C39.741 17.651 39.1861 17.3621 38.6887 17.4117C38.1337 17.5008 37.7461 17.9308 37.7461 18.501H38.1731C38.1731 18.501 38.2822 18.5117 38.292 18.5612Z" fill="black"/>
<path fill-rule="evenodd" clip-rule="evenodd" d="M41.4992 19.1004C41.1222 18.8214 40.219 18.6713 39.8321 19.5906L38.293 23.0185L41.4099 20.8903C42.273 20.2393 41.8869 19.4008 41.4992 19.1004Z" fill="black"/>
<path fill-rule="evenodd" clip-rule="evenodd" d="M37.4291 18.6092C37.5585 17.7997 36.7734 17.3598 36.2367 17.4101C35.7808 17.4986 35.0662 17.9895 35.3433 18.8485L36.862 22.307L37.4291 18.6092Z" fill="black"/>
<path fill-rule="evenodd" clip-rule="evenodd" d="M33.7086 23.4724H36.974L34.1152 21.4646C33.4103 21.0141 32.6669 21.5134 32.5275 22.0332C32.3481 22.6255 32.5752 23.432 33.7086 23.4724Z" fill="black"/>
<path fill-rule="evenodd" clip-rule="evenodd" d="M33.6767 20.809L36.8626 23.0166C36.8626 23.0166 35.543 20.0284 35.2848 19.4499C34.9472 18.7394 34.0833 18.7699 33.6767 19.0787C33.2005 19.4392 33.0317 20.2792 33.6767 20.809Z" fill="black"/>
<path fill-rule="evenodd" clip-rule="evenodd" d="M38.1738 23.4767C38.1738 23.4767 41.2212 23.4858 41.6474 23.4675C42.4908 23.4271 42.73 22.6298 42.6801 22.2479C42.5506 21.6282 41.9358 20.9589 41.0122 21.5085L38.1738 23.4767Z" fill="black"/>
</g>
<defs>
<clipPath id="clip0_14165_86432">
<rect width="106.465" height="42" fill="white" transform="translate(6.76758)"/>
</clipPath>
</defs>
</svg>
