<svg width="120" height="42" viewBox="0 0 120 42" fill="none" xmlns="http://www.w3.org/2000/svg">
<mask id="mask0_14165_86417" style="mask-type:luminance" maskUnits="userSpaceOnUse" x="31" y="1" width="58" height="40">
<path d="M31.5176 1.10547H88.4809V40.896H31.5176V1.10547Z" fill="white"/>
</mask>
<g mask="url(#mask0_14165_86417)">
<path fill-rule="evenodd" clip-rule="evenodd" d="M55.1703 5.46232C57.009 3.54818 59.5682 2.36284 62.3954 2.36284C66.165 2.36284 69.432 4.45708 71.1912 7.5775C72.7527 6.87944 74.4441 6.51904 76.1546 6.51991C82.9399 6.51991 88.4477 12.0696 88.4477 18.9178C88.4477 25.766 82.9399 31.3157 76.1546 31.3157C75.3252 31.3157 74.5169 31.2324 73.7252 31.0749C72.186 33.8183 69.2436 35.6822 65.8928 35.6822C64.5286 35.6849 63.1818 35.3754 61.9556 34.7775C60.3954 38.4424 56.7619 41.0183 52.5315 41.0183C48.1127 41.0183 44.364 38.233 42.919 34.3168C42.2758 34.4525 41.6202 34.5207 40.9629 34.5203C35.7064 34.5203 31.4551 30.2062 31.4551 24.9078C31.4551 21.3476 33.3692 18.2481 36.209 16.5727C35.6065 15.1848 35.2964 13.6878 35.298 12.1748C35.298 6.0596 40.2614 1.11719 46.3765 1.11719C49.9577 1.11719 53.1619 2.82399 55.1724 5.47321" fill="black"/>
</g>
<path fill-rule="evenodd" clip-rule="evenodd" d="M39.7571 21.797C39.7213 21.8904 39.7699 21.9098 39.7814 21.9264C39.8884 22.0039 39.9971 22.06 40.106 22.123C40.6882 22.4309 41.2369 22.5209 41.8107 22.5209C42.9793 22.5209 43.706 21.899 43.706 20.8979V20.8782C43.706 19.9526 42.8851 19.6154 42.1186 19.3746L42.0182 19.3421C41.4381 19.154 40.9376 18.9903 40.9376 18.6091V18.5896C40.9376 18.2629 41.2308 18.0221 41.6832 18.0221C42.1858 18.0221 42.7847 18.1894 43.168 18.4011C43.168 18.4011 43.2815 18.4744 43.3227 18.3649C43.3452 18.3057 43.5405 17.7827 43.5615 17.7241C43.5837 17.6627 43.5447 17.6164 43.5047 17.5926C43.0649 17.3245 42.4576 17.1423 41.8293 17.1423L41.7127 17.1427C40.6425 17.1427 39.8949 17.7898 39.8949 18.7155V18.7354C39.8949 19.7113 40.72 20.0296 41.4907 20.2495L41.6147 20.2881C42.1759 20.4606 42.6618 20.6106 42.6618 21.0043V21.024C42.6618 21.3863 42.3456 21.6564 41.8388 21.6564C41.6417 21.6564 41.0136 21.6531 40.333 21.2229C40.2507 21.175 40.2038 21.1404 40.1403 21.1017C40.1068 21.0814 40.0231 21.0447 39.9866 21.1544L39.7563 21.7953M56.8662 21.7953C56.8304 21.8887 56.879 21.9082 56.8909 21.9247C56.9975 22.0022 57.1066 22.0583 57.2155 22.1214C57.7977 22.4292 58.3464 22.5193 58.9202 22.5193C60.0888 22.5193 60.8155 21.8973 60.8155 20.8962V20.8765C60.8155 19.9509 59.9967 19.6137 59.2281 19.3729L59.1278 19.3404C58.5477 19.1524 58.0471 18.9886 58.0471 18.6074V18.588C58.0471 18.2613 58.3403 18.0204 58.7927 18.0204C59.2953 18.0204 59.8922 18.1877 60.2775 18.3995C60.2775 18.3995 60.391 18.4728 60.4325 18.3632C60.4547 18.304 60.6503 17.781 60.6691 17.7224C60.6915 17.661 60.6524 17.6148 60.6126 17.5909C60.1728 17.3228 59.5655 17.1406 58.9372 17.1406L58.8203 17.141C57.7502 17.141 57.0025 17.7882 57.0025 18.7138V18.7337C57.0025 19.7096 57.8277 20.028 58.5983 20.2478L58.7221 20.2864C59.2855 20.4589 59.7692 20.6089 59.7692 21.0026V21.0223C59.7692 21.3846 59.453 21.6548 58.9462 21.6548C58.7487 21.6548 58.119 21.6514 57.4404 21.2213C57.3581 21.1733 57.31 21.1402 57.2476 21.1C57.2264 21.0866 57.1278 21.0481 57.0941 21.1528L56.8637 21.7936M68.5496 19.8334C68.5496 20.3988 68.444 20.8449 68.2375 21.1611C68.0314 21.4732 67.7202 21.6261 67.2867 21.6261C66.8532 21.6261 66.5433 21.4744 66.3401 21.1632C66.1355 20.8491 66.0323 20.4009 66.0323 19.8355C66.0323 19.27 66.1361 18.8261 66.3401 18.514C66.5429 18.2041 66.8511 18.0554 67.2867 18.0554C67.7223 18.0554 68.0323 18.2055 68.2375 18.514C68.4453 18.8261 68.5496 19.27 68.5496 19.8355M69.5255 18.7863C69.4293 18.4617 69.2804 18.1769 69.0815 17.9381C68.8823 17.6994 68.6312 17.5067 68.3318 17.3685C68.0344 17.2292 67.6825 17.1591 67.2846 17.1591C66.8867 17.1591 66.537 17.2296 66.2375 17.3685C65.9401 17.5075 65.6867 17.6994 65.4878 17.9381C65.2892 18.1769 65.1401 18.4617 65.0438 18.7863C64.9485 19.1088 64.9001 19.4606 64.9001 19.8355C64.9001 20.2104 64.9485 20.5622 65.0438 20.8847C65.1395 21.2093 65.2888 21.4941 65.4878 21.7329C65.6869 21.9716 65.9401 22.1622 66.2375 22.2983C66.537 22.434 66.8888 22.5031 67.2846 22.5031C67.6804 22.5031 68.0323 22.434 68.3297 22.2983C68.627 22.1626 68.8804 21.9716 69.0794 21.7329C69.2781 21.4941 69.427 21.2093 69.5234 20.8847C69.6185 20.5622 69.6668 20.2104 69.6668 19.8355C69.6668 19.4627 69.6185 19.1088 69.5234 18.7863M77.5443 21.4669C77.5123 21.372 77.4197 21.4078 77.4197 21.4078C77.2779 21.4621 77.1265 21.5124 76.9653 21.5375C76.8027 21.563 76.6218 21.5758 76.4312 21.5758C75.96 21.5758 75.5831 21.4353 75.315 21.157C75.0448 20.8784 74.8941 20.4303 74.8961 19.8229C74.8976 19.27 75.0312 18.8554 75.271 18.5371C75.5077 18.2229 75.8721 18.0596 76.3537 18.0596C76.7558 18.0596 77.0637 18.1063 77.3862 18.2072C77.3862 18.2072 77.4626 18.2405 77.4993 18.1398C77.5849 17.9031 77.6482 17.7335 77.7401 17.4738C77.7661 17.3995 77.7024 17.3681 77.6792 17.3591C77.5527 17.3096 77.2541 17.2286 77.0279 17.1944C76.8164 17.1622 76.5713 17.1454 76.2949 17.1454C75.8844 17.1454 75.52 17.2156 75.208 17.3547C74.8959 17.4935 74.6321 17.6855 74.4226 17.9243C74.2132 18.163 74.0541 18.4479 73.9473 18.7725C73.8415 19.095 73.7881 19.4489 73.7881 19.8238C73.7881 20.6321 74.0059 21.2876 74.4373 21.7672C74.8687 22.2489 75.5179 22.4918 76.364 22.4918C76.8645 22.4918 77.3776 22.3907 77.7462 22.2447C77.7462 22.2447 77.8166 22.2108 77.786 22.1287L77.5452 21.4669M79.252 19.2889C79.2987 18.9748 79.3847 18.713 79.52 18.5098C79.7225 18.1999 80.031 18.0303 80.4645 18.0303C80.898 18.0303 81.1849 18.2007 81.3902 18.5098C81.5263 18.714 81.5858 18.9852 81.608 19.2889L79.2415 19.2885L79.252 19.2889ZM82.5399 18.5978C82.4568 18.2858 82.2509 17.9695 82.1169 17.825C81.9033 17.5968 81.6959 17.4355 81.4886 17.3475C81.1893 17.2203 80.8673 17.1549 80.542 17.1555C80.1294 17.1555 79.7546 17.2252 79.4509 17.367C79.1473 17.5098 78.8918 17.7042 78.6907 17.9471C78.4899 18.19 78.3389 18.477 78.2425 18.8058C78.1462 19.1304 78.0976 19.4864 78.0976 19.8592C78.0976 20.2403 78.1481 20.5942 78.2474 20.9147C78.3477 21.2372 78.5091 21.5199 78.7269 21.7544C78.9447 21.9911 79.2233 22.1754 79.5583 22.3052C79.8913 22.434 80.2955 22.5008 80.7584 22.4994C81.7133 22.4962 82.2159 22.2837 82.4212 22.1685C82.4578 22.148 82.4924 22.1126 82.4492 22.0106L82.2335 21.4053C82.2004 21.3151 82.1091 21.3477 82.1091 21.3477C81.8725 21.4361 81.5374 21.5949 80.7521 21.5928C80.239 21.5919 79.8599 21.4405 79.6212 21.2032C79.3782 20.9603 79.2568 20.6064 79.2379 20.1038L82.5468 20.1063C82.5468 20.1063 82.6339 20.1054 82.643 20.0204C82.6465 19.9852 82.7563 19.3419 82.5443 18.5984L82.5399 18.5978ZM52.8017 19.2889C52.8484 18.9748 52.9347 18.713 53.0698 18.5098C53.2725 18.1999 53.5808 18.0303 54.0143 18.0303C54.4478 18.0303 54.7347 18.2007 54.9399 18.5098C55.0758 18.714 55.1353 18.9852 55.1577 19.2889L52.7912 19.2885L52.8017 19.2889ZM56.0897 18.5978C56.0067 18.2858 55.8007 17.9695 55.6666 17.825C55.453 17.5968 55.2457 17.4355 55.0383 17.3475C54.739 17.2203 54.417 17.1549 54.0918 17.1555C53.6792 17.1555 53.3043 17.2252 53.0007 17.367C52.697 17.5098 52.4415 17.7042 52.2404 17.9471C52.04 18.19 51.8886 18.477 51.7923 18.8058C51.6961 19.1304 51.6478 19.4864 51.6478 19.8592C51.6478 20.2403 51.6978 20.5942 51.7977 20.9147C51.8978 21.2372 52.0595 21.5199 52.2752 21.7544C52.493 21.9911 52.7715 22.1754 53.1066 22.3052C53.4396 22.434 53.8417 22.5008 54.3066 22.4994C55.2616 22.4962 55.7642 22.2837 55.9694 22.1685C56.0059 22.148 56.0407 22.1126 55.9973 22.0106L55.7816 21.4053C55.7483 21.3151 55.657 21.3477 55.657 21.3477C55.4203 21.4361 55.0853 21.5949 54.2999 21.5928C53.7889 21.5919 53.4078 21.4405 53.169 21.2032C52.9261 20.9603 52.8046 20.6064 52.7858 20.1038L56.0947 20.1063C56.0947 20.1063 56.1818 20.1054 56.1908 20.0204C56.1944 19.9852 56.3041 19.3419 56.092 18.5984L56.0897 18.5978ZM45.6603 21.446C45.5307 21.3425 45.5127 21.3172 45.4698 21.2499C45.4042 21.1488 45.3707 21.0049 45.3707 20.8206C45.3707 20.5316 45.467 20.3222 45.666 20.1819C45.6639 20.1823 45.9508 19.9348 46.6252 19.9431C46.9253 19.9485 47.2248 19.9741 47.5215 20.0196V21.5211H47.5219C47.5219 21.5211 47.1031 21.6114 46.6298 21.6399C45.9575 21.6803 45.6601 21.4464 45.6622 21.447L45.6603 21.446ZM46.9755 19.1214C46.8415 19.1115 46.6677 19.1067 46.4603 19.1067C46.1776 19.1067 45.9033 19.1419 45.6478 19.211C45.3902 19.2805 45.1577 19.3882 44.9588 19.5314C44.7593 19.6737 44.5952 19.86 44.4792 20.0759C44.3621 20.2937 44.3024 20.5492 44.3024 20.8382C44.3024 21.1314 44.3533 21.3848 44.4538 21.5921C44.5523 21.7978 44.7006 21.9756 44.8853 22.1094C45.0689 22.243 45.2957 22.3419 45.5575 22.4005C45.8172 22.4598 46.1104 22.4897 46.4329 22.4897C46.7722 22.4897 47.1093 22.4613 47.436 22.4062C47.7143 22.3582 47.9915 22.3043 48.2675 22.2445C48.3776 22.2192 48.4999 22.1859 48.4999 22.1859C48.5816 22.1651 48.5753 22.0778 48.5753 22.0778L48.5734 19.0621C48.5734 18.4003 48.3967 17.9082 48.0478 17.6045C47.7001 17.3008 47.1912 17.148 46.5315 17.148C46.2844 17.148 45.8844 17.1815 45.6457 17.2294C45.6457 17.2294 44.9253 17.3693 44.6279 17.6022C44.6279 17.6022 44.5625 17.6424 44.5981 17.7335L44.8327 18.3618C44.8618 18.4432 44.9412 18.4154 44.9412 18.4154C44.9412 18.4154 44.9661 18.4055 44.9954 18.3882C45.63 18.0426 46.4342 18.0531 46.4342 18.0531C46.7902 18.0531 47.0666 18.1253 47.2509 18.2667C47.4312 18.4051 47.5232 18.6143 47.5232 19.0541V19.1938C47.2404 19.1528 46.9787 19.1291 46.9787 19.1291L46.9755 19.1214ZM73.5724 17.4187C73.5771 17.4077 73.5796 17.3958 73.5797 17.3838C73.5798 17.3718 73.5774 17.3598 73.5728 17.3487C73.5682 17.3376 73.5613 17.3276 73.5527 17.3192C73.5441 17.3108 73.5339 17.3042 73.5227 17.2998C73.4664 17.2784 73.1856 17.2192 72.9699 17.2058C72.5552 17.1798 72.3248 17.2497 72.1175 17.3427C71.9127 17.4351 71.6861 17.5836 71.5604 17.7553L71.56 17.3532C71.56 17.2979 71.5209 17.2533 71.4652 17.2533H70.6191C70.5642 17.2533 70.5244 17.2979 70.5244 17.3532V22.2747C70.5245 22.3012 70.5351 22.3267 70.5539 22.3455C70.5727 22.3643 70.5981 22.3749 70.6247 22.375H71.4918C71.5183 22.3749 71.5438 22.3643 71.5625 22.3455C71.5813 22.3267 71.5919 22.3012 71.5919 22.2747V19.8035C71.5919 19.4726 71.6283 19.1438 71.701 18.9364C71.7726 18.7314 71.87 18.5678 71.99 18.4506C72.1045 18.3373 72.2445 18.2533 72.3983 18.2055C72.5427 18.1641 72.6921 18.1431 72.8423 18.1431C73.0151 18.1431 73.2046 18.1875 73.2046 18.1875C73.2683 18.1947 73.3037 18.1557 73.3253 18.0983C73.382 17.9473 73.5431 17.4952 73.5745 17.4051" fill="#FFFFFE"/>
<path fill-rule="evenodd" clip-rule="evenodd" d="M65.4729 15.1476C65.3658 15.1152 65.2567 15.0893 65.1464 15.0701C64.9981 15.0453 64.8478 15.0337 64.6974 15.0353C64.1 15.0353 63.629 15.2041 63.2983 15.5375C62.9699 15.8684 62.7464 16.3725 62.6344 17.0357L62.594 17.2596H61.844C61.844 17.2596 61.7525 17.2558 61.7333 17.3557L61.6101 18.0426C61.6015 18.1084 61.6298 18.1494 61.7178 18.149H62.4478L61.7071 22.2837C61.6491 22.6167 61.5827 22.8906 61.5092 23.0981C61.4367 23.303 61.3659 23.4565 61.2788 23.5679C61.1944 23.6757 61.1144 23.7551 60.9764 23.8014C60.8625 23.8397 60.7314 23.8573 60.5877 23.8573C60.5077 23.8573 60.4013 23.8439 60.3228 23.8282C60.2442 23.8127 60.2034 23.7951 60.1446 23.7704C60.1446 23.7704 60.0589 23.7377 60.0252 23.8236C59.9978 23.8937 59.8032 24.4288 59.7802 24.495C59.7567 24.5603 59.7896 24.6118 59.8311 24.6267C59.9282 24.6615 60.0005 24.6837 60.1328 24.7149C60.3167 24.7582 60.4717 24.761 60.6168 24.761C60.9209 24.761 61.198 24.7182 61.4277 24.6353C61.6589 24.5517 61.8602 24.4062 62.0382 24.2091C62.2306 23.9966 62.3517 23.7739 62.4675 23.4703C62.5821 23.1693 62.6796 22.7957 62.7578 22.3603L63.502 18.149H64.5902C64.5902 18.149 64.6819 18.1524 64.701 18.0529L64.8241 17.366C64.8327 17.3002 64.8047 17.2592 64.7163 17.2596H63.6602C63.6654 17.2357 63.7134 16.8642 63.8346 16.5145C63.8863 16.3651 63.9837 16.2447 64.0662 16.162C64.1433 16.0832 64.2382 16.0242 64.3429 15.9899C64.4577 15.9544 64.5773 15.9371 64.6974 15.9388C64.7969 15.9388 64.8945 15.9507 64.9689 15.9662C65.0713 15.988 65.1111 15.9995 65.1379 16.0075C65.2455 16.0403 65.26 16.0085 65.2811 15.9564L65.5337 15.2627C65.5596 15.1882 65.4964 15.1568 65.4729 15.1476ZM50.714 22.2925C50.714 22.3478 50.6746 22.3928 50.6193 22.3928H49.7433C49.6878 22.3928 49.6484 22.3478 49.6484 22.2925V15.2416C49.6484 15.1865 49.6878 15.1419 49.7433 15.1419H50.6193C50.6746 15.1419 50.714 15.1865 50.714 15.2416V22.2925Z" fill="#FFFFFE"/>
</svg>
