<svg width="120" height="42" viewBox="0 0 120 42" fill="none" xmlns="http://www.w3.org/2000/svg">
<path d="M21.6136 20.6772C21.6581 17.9096 23.6115 15.0011 24.6032 15.0011C24.8962 15.0011 24.9583 15.1913 24.9583 15.3936C24.9583 16.3407 23.5524 18.8716 21.6136 20.6772ZM31.4435 10.8067C30.5203 10.8016 29.6295 11.3604 29.0525 12.1992C31.7782 13.9815 28.4385 22.8562 23.513 22.8562C22.9228 22.8562 22.4219 22.6843 22.0869 22.3332C24.7532 19.9314 26.6794 16.6651 26.6794 14.7389C26.6794 13.7541 26.1983 13.1293 25.0707 13.1293C21.7993 13.1293 18.3502 18.4968 18.99 22.3691C16.9273 23.1019 15.9022 22.1852 15.9022 20.3443C15.9022 16.5005 19.9185 12.5139 19.6853 11.3145C15.5238 12.601 12.2669 9.6119 10.7656 14.4766C12.7885 13.3759 14.6558 15.1354 16.9634 13.849C14.9816 16.1352 12.9812 19.372 13.0081 22.1057C13.0259 23.8948 13.9923 25.1856 16.0858 25.1856C17.2746 25.1856 18.5081 24.7693 19.6956 24.0903C20.2043 24.7261 21.0242 25.1856 22.2773 25.1856C27.3861 25.1856 32.9696 18.0072 32.9696 12.8849C32.9696 11.5261 32.4304 10.8121 31.4435 10.8067Z" fill="black"/>
<path d="M79.337 21.5304C79.337 20.0344 81.6108 17.7228 82.7484 17.7228C83.0603 17.7228 83.2634 17.8568 83.2634 18.1743C83.2634 19.003 81.5116 20.481 79.337 21.5304ZM73.7293 17.7272C74.0413 17.7272 74.2442 17.8611 74.2442 18.1788C74.2442 19.0074 72.4923 20.4852 70.318 21.5349C70.318 20.0387 72.5917 17.7272 73.7293 17.7272ZM50.5614 21.7007C50.5614 19.9163 53.2737 17.9447 55.3725 17.9447C55.7878 17.9447 56.2058 18.015 56.5763 18.1658C54.1122 22.0945 50.5614 23.6568 50.5614 21.7007ZM48.2252 29.9258C47.9852 29.9258 47.8309 29.8058 47.8309 29.5509C47.8309 28.9951 48.9223 27.5495 51.7928 26.5164C50.5728 28.5098 49.1529 29.9258 48.2252 29.9258ZM32.106 21.7007C32.106 19.978 34.7848 17.9381 36.931 17.9381C37.3633 17.9381 37.7707 18.0091 38.1227 18.1658C35.5273 22.2489 32.106 23.5909 32.106 21.7007ZM48.8178 13.823C49.0545 13.823 49.1582 13.9414 49.1582 14.1634C49.1582 15.1846 46.7163 18.3517 44.2595 20.3496C44.8812 18.174 47.6634 13.823 48.8178 13.823ZM104.286 22.8261C106.142 20.4963 103.71 17.0907 106.338 16.1675C106.277 15.513 105.663 15.1218 104.88 15.1218C104.174 15.1218 103.419 15.5076 102.936 16.1309C100.168 19.7024 97.294 22.453 95.6501 22.453C95.1024 22.453 94.9101 22.2014 94.9101 21.7723C94.9101 20.4403 96.5825 18.4867 97.8702 17.1251C98.0333 16.9476 98.1074 16.7698 98.1074 16.6071C98.1074 16.2075 97.6487 15.9412 97.086 15.9412C95.6719 15.9412 92.7369 18.1788 90.5678 20.2221C91.3446 18.7549 92.2069 17.587 92.2069 16.9545C92.2069 16.2883 91.5117 16.096 90.7126 16.1109C87.6166 20.2261 83.644 23.2663 81.0943 23.2663C80.4345 23.2663 79.9935 23.0436 79.7169 22.7143C82.9638 21.3873 85.6751 19.1711 85.6751 17.5354C85.6751 16.522 84.825 16.0711 83.6338 16.0711C80.5765 16.0711 76.7079 19.3244 76.5166 22.5817C73.57 23.6413 71.375 23.4526 70.6975 22.7189C73.9442 21.3918 76.6558 19.1754 76.6558 17.5399C76.6558 16.5265 75.8057 16.0757 74.6147 16.0757C71.5307 16.0757 67.6217 19.3848 67.4927 22.6702C66.0175 23.1237 64.3401 23.3231 64.3401 22.1073C64.3401 20.1016 67.3445 18.4546 67.3445 17.1198C67.3445 16.7497 67.1816 16.4389 66.9004 16.2762C65.9422 16.7698 64.5178 17.1789 63.4817 17.1789C63.7481 16.3502 63.4669 15.699 62.6531 15.699C61.4541 15.699 60.54 17.0457 60.54 18.141C60.54 18.6214 60.7172 18.9554 61.0075 19.1762C59.8184 20.776 58.3119 22.2397 56.2801 23.4027C56.8867 22.1445 57.3566 20.7898 58.0092 18.8777C59.5858 17.9477 60.386 16.0537 57.2091 16.0537C54.6047 16.0537 51.728 17.6188 49.9277 19.7237C47.5772 22.472 44.715 24.0068 44.2073 21.9212C48.0884 19.0016 51.6972 14.8745 51.6576 12.8188C51.6433 12.0754 51.2008 11.5703 50.1596 11.5703C47.6956 11.5703 41.9494 17.1718 41.4614 22.1576C37.3476 24.3605 37.8137 20.8898 39.0714 19.0637C40.8993 18.1253 42.1643 16.0537 38.7556 16.0537C33.8097 16.0537 29.7387 20.6527 29.8075 23.5947C29.8279 24.4658 30.2654 25.1844 31.1906 25.1848C32.2507 25.1856 33.9523 24.4508 35.7445 22.5992C35.3994 24.3726 35.8102 25.1848 37.2643 25.1848C38.4465 25.1848 39.9612 24.5902 41.562 23.6699C41.8279 24.4979 42.5185 25.1848 43.8755 25.1848C45.2839 25.1848 47.0199 24.0758 48.3789 22.6443C48.309 22.9619 48.2721 23.2801 48.2721 23.596C48.2721 24.625 48.8245 25.1844 49.6442 25.1848C50.5678 25.1855 51.9505 24.4523 53.4728 23.0155C53.2334 23.669 52.9596 24.3336 52.6375 24.9816C49.3621 26.1382 45.9837 27.3901 45.9837 29.6574C45.9837 30.6193 46.7815 31.1922 47.7878 31.1922C50.243 31.1922 53.2603 28.2594 55.144 25.3994C57.4781 24.3531 60.1953 22.3716 62.2913 19.5379C62.8364 19.5511 63.4409 19.4572 64 19.3102C62.2079 21.2145 61.3801 22.4477 61.3801 23.6464C61.3801 24.6381 62.135 25.1848 63.4669 25.1848C64.6293 25.1848 66.0903 24.7736 67.8175 24.0135C68.3225 24.7876 69.3753 25.1848 70.7289 25.1848C72.748 25.1848 74.9819 24.4955 76.7142 23.7805C77.098 24.5989 78.0217 25.1848 79.5029 25.1848C82.5139 25.1848 85.2382 23.2741 87.5371 21.2268C86.4987 22.8061 84.9548 25.1848 87.126 25.1848C87.4664 25.1848 87.9455 25.1298 88.3383 24.9984C89.8774 22.1866 91.8766 20.3662 93.8745 19.1675C92.2314 21.2098 91.5511 22.7639 91.5511 23.7702C91.5511 24.7024 92.1281 25.1848 93.0754 25.1848C95.96 25.1848 99.3489 22.2197 102.266 18.8249C102.416 20.1215 103.205 21.5127 101.823 22.7203C99.7342 22.6711 98.5661 23.2733 98.5688 24.2527C98.5701 24.8559 99.075 25.1848 99.7906 25.1848C100.517 25.1848 101.23 24.9737 101.892 24.6486C103.062 24.9875 104.269 25.351 105.682 25.351C107.74 25.351 109.19 24.317 109.236 22.6048C108.055 23.2228 106.152 22.9904 104.286 22.8261Z" fill="black"/>
</svg>
